<mxfile host="app.diagrams.net" modified="2024-07-05T06:21:21.361Z" agent="Mozilla/5.0 (Macintosh; Intel Mac OS X 10_15_7) AppleWebKit/537.36 (KHTML, like Gecko) Chrome/116.0.0.0 Safari/537.36" version="24.6.4" etag="qNwEE8cPEWokn4ivAGW5" type="github">
  <diagram name="Page-1" id="Nh3w5HlAvclPhyEkrIjV">
    <mxGraphModel>
      <root>
        <mxCell id="0" />
        <mxCell id="1" parent="0" />
      </root>
    </mxGraphModel>
  </diagram>
</mxfile>
